# ProBuilder 4.4.0
# https://unity3d.com/unity/features/worldbuilding/probuilder
# 16.10.2021 15:47:49

mtllib ./60deg.mtl
o 60deg

g Arch
v -6.1 1.5 0.03999924
v -6.097461 1.5 0.2145076
v -6.1 0.5 0.03999912
v -6.097461 0.5 0.2145075
v -5.597673 1.5 0.1999652
v -5.6 1.5 0.03999924
v -5.597673 0.5 0.1999651
v -5.6 0.5 0.03999912
v -6.089849 1.5 0.3888684
v -6.089849 0.5 0.3888682
v -5.590695 1.5 0.3597958
v -5.590695 0.5 0.3597957
v -6.077168 1.5 0.5629337
v -6.077168 0.4999999 0.5629336
v -5.579071 1.5 0.5193558
v -5.579071 0.4999999 0.5193557
v -6.05943 1.5 0.7365567
v -6.05943 0.4999999 0.7365566
v -5.562811 1.5 0.6785102
v -5.562811 0.4999999 0.6785101
v -6.03665 1.5 0.9095905
v -6.03665 0.4999999 0.9095904
v -5.541929 1.5 0.8371245
v -5.541929 0.4999999 0.8371244
v -6.008846 1.5 1.081888
v -6.008846 0.4999999 1.081888
v -5.516442 1.5 0.9950644
v -5.516442 0.4999999 0.9950643
v -5.976044 1.5 1.253305
v -5.976044 0.4999999 1.253305
v -5.486373 1.5 1.152196
v -5.486373 0.4999999 1.152196
v -5.938269 1.5 1.423694
v -5.938269 0.4999999 1.423694
v -5.451746 1.5 1.308387
v -5.451746 0.4999999 1.308386
v -5.895555 1.5 1.592914
v -5.895555 0.4999998 1.592914
v -5.412592 1.5 1.463504
v -5.412592 0.4999999 1.463504
v -5.847937 1.5 1.760819
v -5.847937 0.4999998 1.760819
v -5.368942 1.5 1.617417
v -5.368942 0.4999998 1.617417
v -5.795456 1.5 1.927268
v -5.795456 0.4999998 1.927268
v -5.320835 1.5 1.769996
v -5.320835 0.4999998 1.769996
v -5.738156 1.5 2.09212
v -5.738156 0.4999998 2.09212
v -5.268309 1.5 1.92111
v -5.268309 0.4999998 1.92111
v -5.676085 1.5 2.255236
v -5.676085 0.4999998 2.255236
v -5.211411 1.5 2.070633
v -5.211411 0.4999998 2.070633
v -5.609296 1.5 2.416478
v -5.609296 0.4999997 2.416478
v -5.150188 1.5 2.218438
v -5.150188 0.4999998 2.218438
v -5.537847 1.5 2.575709
v -5.537847 0.4999997 2.575709
v -5.084692 1.5 2.3644
v -5.084692 0.4999997 2.3644
v -5.461796 1.5 2.732795
v -5.461796 0.4999997 2.732795
v -5.014979 1.5 2.508395
v -5.014979 0.4999997 2.508395
v -5.381208 1.5 2.887602
v -5.381208 0.4999997 2.887602
v -4.941108 1.5 2.650301
v -4.941108 0.4999997 2.650301
v -5.296152 1.5 3.039999
v -5.296152 0.4999996 3.039999
v -4.86314 1.5 2.789999
v -4.86314 0.4999997 2.789999
v -5.2067 1.5 3.189859
v -5.2067 0.4999996 3.189859
v -4.781142 1.5 2.927371
v -4.781142 0.4999997 2.927371
v -5.112927 1.5 3.337053
v -5.112927 0.4999996 3.337053
v -4.695183 1.5 3.062299
v -4.695183 0.4999996 3.062299
v -5.014912 1.5 3.481458
v -5.014912 0.4999996 3.481458
v -4.605336 1.5 3.19467
v -4.605336 0.4999996 3.19467
v -4.912739 1.5 3.622951
v -4.912739 0.4999996 3.622951
v -4.511677 1.5 3.324372
v -4.511677 0.4999996 3.324372
v -4.806494 1.5 3.761412
v -4.806494 0.4999996 3.761412
v -4.414286 1.5 3.451295
v -4.414286 0.4999996 3.451294
v -4.696267 1.5 3.896725
v -4.696267 0.4999996 3.896725
v -4.313244 1.5 3.575331
v -4.313244 0.4999996 3.575331
v -4.58215 1.5 4.028775
v -4.58215 0.4999995 4.028775
v -4.208638 1.5 3.696377
v -4.208638 0.4999996 3.696377
v -4.464242 1.5 4.15745
v -4.464242 0.4999995 4.157449
v -4.100555 1.5 3.814329
v -4.100555 0.4999996 3.814328
v -4.34264 1.5 4.28264
v -4.34264 0.4999995 4.28264
v -3.989087 1.5 3.929087
v -3.989087 0.4999996 3.929087
v -4.21745 1.5 4.404242
v -4.21745 0.4999995 4.404242
v -3.874329 1.5 4.040555
v -3.874329 0.4999995 4.040555
v -4.088775 1.5 4.522151
v -4.088775 0.4999995 4.52215
v -3.756377 1.5 4.148638
v -3.756377 0.4999995 4.148637
v -3.956726 1.5 4.636267
v -3.956726 0.4999995 4.636266
v -3.635332 1.5 4.253244
v -3.635332 0.4999995 4.253244
v -3.821413 1.5 4.746494
v -3.821413 0.4999995 4.746493
v -3.511295 1.5 4.354286
v -3.511295 0.4999995 4.354286
v -3.682951 1.5 4.852739
v -3.682951 0.4999994 4.852739
v -3.384372 1.5 4.451677
v -3.384372 0.4999995 4.451677
v -3.541459 1.5 4.954912
v -3.541459 0.4999994 4.954912
v -3.25467 1.5 4.545336
v -3.25467 0.4999995 4.545336
v -3.397054 1.5 5.052927
v -3.397054 0.4999994 5.052927
v -3.122299 1.5 4.635183
v -3.122299 0.4999995 4.635183
v -3.24986 1.5 5.1467
v -3.24986 0.4999994 5.1467
v -2.987371 1.5 4.721142
v -2.987371 0.4999995 4.721141
v -3.1 1.5 5.236153
v -3.1 0.4999994 5.236153
v -2.85 1.5 4.80314
v -2.85 0.4999994 4.803139

vt -0.5 -2.621439
vt -0.5 -2.446913
vt 0.5 -2.621439
vt 0.5 -2.446913
vt 0.5 -2.454182
vt 0.5 -2.614165
vt -0.5 -2.454182
vt -0.5 -2.614165
vt -1.625 0.5
vt -1.125 0.5
vt -1.625 -0.5
vt -1.125 -0.5
vt -0.5 -2.492028
vt -0.5 -2.317501
vt 0.5 -2.492028
vt 0.5 -2.317501
vt 0.5 -2.324776
vt 0.5 -2.484759
vt -0.5 -2.324776
vt -0.5 -2.484759
vt -0.5 -2.360597
vt -0.5 -2.18607
vt 0.5 -2.360597
vt 0.5 -2.18607
vt 0.5 -2.193339
vt 0.5 -2.353322
vt -0.5 -2.193339
vt -0.5 -2.353322
vt -0.5 -2.227236
vt -0.5 -2.052709
vt 0.5 -2.227236
vt 0.5 -2.052709
vt 0.5 -2.05998
vt 0.5 -2.219963
vt -0.5 -2.05998
vt -0.5 -2.219963
vt -0.5 -2.092059
vt -0.5 -1.917532
vt 0.5 -2.092059
vt 0.5 -1.917532
vt 0.5 -1.924807
vt 0.5 -2.08479
vt -0.5 -1.924807
vt -0.5 -2.08479
vt -0.5 -1.955194
vt -0.5 -1.780667
vt 0.5 -1.955194
vt 0.5 -1.780667
vt 0.5 -1.787939
vt 0.5 -1.947922
vt -0.5 -1.787939
vt -0.5 -1.947922
vt -0.5 -1.816743
vt -0.5 -1.642216
vt 0.5 -1.816743
vt 0.5 -1.642216
vt 0.5 -1.649488
vt 0.5 -1.809471
vt -0.5 -1.649488
vt -0.5 -1.809471
vt -0.5 -1.676833
vt -0.5 -1.502306
vt 0.5 -1.676833
vt 0.5 -1.502306
vt 0.5 -1.509579
vt 0.5 -1.669562
vt -0.5 -1.509579
vt -0.5 -1.669562
vt -0.5 -1.535574
vt -0.5 -1.361048
vt 0.5 -1.535574
vt 0.5 -1.361048
vt 0.5 -1.36832
vt 0.5 -1.528303
vt -0.5 -1.36832
vt -0.5 -1.528303
vt -0.5 -1.393093
vt -0.5 -1.218567
vt 0.5 -1.393093
vt 0.5 -1.218567
vt 0.5 -1.225838
vt 0.5 -1.385821
vt -0.5 -1.225838
vt -0.5 -1.385821
vt -0.5 -1.249505
vt -0.5 -1.074978
vt 0.5 -1.249505
vt 0.5 -1.074978
vt 0.5 -1.08225
vt 0.5 -1.242233
vt -0.5 -1.08225
vt -0.5 -1.242233
vt -0.5 -1.104935
vt -0.5 -0.9304085
vt 0.5 -1.104935
vt 0.5 -0.9304085
vt 0.5 -0.9376816
vt 0.5 -1.097664
vt -0.5 -0.9376816
vt -0.5 -1.097664
vt -0.5 -0.959505
vt -0.5 -0.7849782
vt 0.5 -0.959505
vt 0.5 -0.7849782
vt 0.5 -0.7922487
vt 0.5 -0.9522316
vt -0.5 -0.7922487
vt -0.5 -0.9522316
vt -0.5 -0.813334
vt -0.5 -0.6388069
vt 0.5 -0.813334
vt 0.5 -0.6388069
vt 0.5 -0.6460781
vt 0.5 -0.8060609
vt -0.5 -0.6460781
vt -0.5 -0.8060609
vt -0.5 -0.6665487
vt -0.5 -0.492022
vt 0.5 -0.6665487
vt 0.5 -0.492022
vt 0.5 -0.4992951
vt 0.5 -0.6592781
vt -0.5 -0.4992951
vt -0.5 -0.6592781
vt -0.5 -0.519275
vt -0.5 -0.3447483
vt 0.5 -0.519275
vt 0.5 -0.3447483
vt 0.5 -0.3520201
vt 0.5 -0.5120029
vt -0.5 -0.3520201
vt -0.5 -0.5120029
vt -0.5 -0.3716348
vt -0.5 -0.1971079
vt 0.5 -0.3716348
vt 0.5 -0.1971079
vt 0.5 -0.2043805
vt 0.5 -0.3643632
vt -0.5 -0.2043805
vt -0.5 -0.3643632
vt -0.5 -0.2237575
vt -0.5 -0.04923065
vt 0.5 -0.2237575
vt 0.5 -0.04923065
vt 0.5 -0.05650092
vt 0.5 -0.216484
vt -0.5 -0.05650092
vt -0.5 -0.216484
vt -0.5 -0.07575909
vt -0.5 0.09876758
vt 0.5 -0.07575909
vt 0.5 0.09876758
vt 0.5 0.09149519
vt 0.5 -0.0684875
vt -0.5 0.09149519
vt -0.5 -0.0684875
vt -0.5 0.07222699
vt -0.5 0.2467534
vt 0.5 0.07222699
vt 0.5 0.2467534
vt 0.5 0.239481
vt 0.5 0.07949848
vt -0.5 0.239481
vt -0.5 0.07949848
vt -0.5 0.2200773
vt -0.5 0.3946045
vt 0.5 0.2200773
vt 0.5 0.3946045
vt 0.5 0.3873322
vt 0.5 0.2273488
vt -0.5 0.3873322
vt -0.5 0.2273488
vt -0.5 0.3676695
vt -0.5 0.5421961
vt 0.5 0.3676695
vt 0.5 0.5421961
vt 0.5 0.5349231
vt 0.5 0.3749401
vt -0.5 0.5349231
vt -0.5 0.3749401
vt -0.5 0.5148743
vt -0.5 0.6894007
vt 0.5 0.5148743
vt 0.5 0.6894007
vt 0.5 0.6821294
vt 0.5 0.5221469
vt -0.5 0.6821294
vt -0.5 0.5221469
vt -0.5 0.6615702
vt -0.5 0.8360972
vt 0.5 0.6615702
vt 0.5 0.8360972
vt 0.5 0.8288262
vt 0.5 0.6688432
vt -0.5 0.8288262
vt -0.5 0.6688432
vt -0.5 0.8076354
vt -0.5 0.9821624
vt 0.5 0.8076354
vt 0.5 0.9821624
vt 0.5 0.9748896
vt 0.5 0.8149065
vt -0.5 0.9748896
vt -0.5 0.8149065
vt -0.5 0.9529403
vt -0.5 1.127467
vt 0.5 0.9529403
vt 0.5 1.127467
vt 0.5 1.120195
vt 0.5 0.9602124
vt -0.5 1.120195
vt -0.5 0.9602124
vt -0.5 1.097364
vt -0.5 1.271891
vt 0.5 1.097364
vt 0.5 1.271891
vt 0.5 1.264621
vt 0.5 1.104638
vt -0.5 1.264621
vt -0.5 1.104638
vt -1.240792 -0.5
vt -1.415319 -0.5
vt -1.240792 0.5
vt -1.415319 0.5
vt 1.408045 -0.5
vt 1.248062 -0.5
vt 1.408045 0.5
vt 1.248062 0.5
vt -1.38309 -0.5
vt -1.557616 -0.5
vt -1.38309 0.5
vt -1.557616 0.5
vt 1.550344 -0.5
vt 1.390362 -0.5
vt 1.550344 0.5
vt 1.390362 0.5
vt -1.524145 -0.5
vt -1.698672 -0.5
vt -1.524145 0.5
vt -1.698672 0.5
vt 1.691401 -0.5
vt 1.531418 -0.5
vt 1.691401 0.5
vt 1.531418 0.5
vt -1.663835 -0.5
vt -1.838362 -0.5
vt -1.663835 0.5
vt -1.838362 0.5
vt 1.831092 -0.5
vt 1.671109 -0.5
vt 1.831092 0.5
vt 1.671109 0.5
vt -1.802052 -0.5
vt -1.976579 -0.5
vt -1.802052 0.5
vt -1.976579 0.5
vt 1.969303 -0.5
vt 1.809321 -0.5
vt 1.969303 0.5
vt 1.809321 0.5
vt -1.93866 -0.5
vt -2.113186 -0.5
vt -1.93866 0.5
vt -2.113186 0.5
vt 2.105917 -0.5
vt 1.945933 -0.5
vt 2.105917 0.5
vt 1.945933 0.5
vt -2.07356 -0.5
vt -2.248086 -0.5
vt -2.07356 0.5
vt -2.248086 0.5
vt 2.240815 -0.5
vt 2.080832 -0.5
vt 2.240815 0.5
vt 2.080832 0.5
vt -2.206628 -0.5
vt -2.381154 -0.5
vt -2.206628 0.5
vt -2.381154 0.5
vt 2.373882 -0.5
vt 2.213899 -0.5
vt 2.373882 0.5
vt 2.213899 0.5
vt -2.337758 -0.5
vt -2.512285 -0.5
vt -2.337758 0.5
vt -2.512285 0.5
vt 2.50501 -0.5
vt 2.345027 -0.5
vt 2.50501 0.5
vt 2.345027 0.5
vt -0.5 1.0625
vt -0.5 1.5625
vt 0.5 1.0625
vt 0.5 1.5625
vt -1.625 -2.598077
vt -1.622461 -2.423569
vt -1.125 -2.598077
vt -1.122673 -2.438111
vt 1.622461 -2.423569
vt 1.625 -2.598077
vt 1.122673 -2.438111
vt 1.125 -2.598077
vt -1.614849 -2.249208
vt -1.115695 -2.27828
vt 1.614849 -2.249208
vt 1.115695 -2.27828
vt -1.602168 -2.075143
vt -1.104071 -2.118721
vt 1.602168 -2.075143
vt 1.104071 -2.118721
vt -1.58443 -1.90152
vt -1.087811 -1.959566
vt 1.58443 -1.90152
vt 1.087811 -1.959566
vt -1.56165 -1.728486
vt -1.066929 -1.800952
vt 1.56165 -1.728486
vt 1.066929 -1.800952
vt -1.533846 -1.556188
vt -1.041442 -1.643012
vt 1.533846 -1.556188
vt 1.041442 -1.643012
vt -1.501044 -1.384772
vt -1.011374 -1.48588
vt 1.501044 -1.384772
vt 1.011374 -1.48588
vt -1.463269 -1.214382
vt -0.9767466 -1.32969
vt 1.463269 -1.214382
vt 0.9767466 -1.32969
vt -1.420555 -1.045163
vt -0.937592 -1.174572
vt 1.420555 -1.045163
vt 0.937592 -1.174572
vt -1.372937 -0.8772578
vt -0.8939424 -1.020659
vt 1.372937 -0.8772578
vt 0.8939424 -1.020659
vt -1.320456 -0.7108085
vt -0.8458347 -0.8680809
vt 1.320456 -0.7108085
vt 0.8458347 -0.8680809
vt -1.263156 -0.5459564
vt -0.7933092 -0.7169664
vt 1.263156 -0.5459564
vt 0.7933092 -0.7169664
vt -1.201085 -0.3828404
vt -0.7364111 -0.5674434
vt 1.201085 -0.3828404
vt 0.7364111 -0.5674434
vt -1.134296 -0.2215984
vt -0.6751885 -0.4196384
vt 1.134296 -0.2215984
vt 0.6751885 -0.4196384
vt -1.062847 -0.06236744
vt -0.6096926 -0.2736766
vt 1.062847 -0.06236744
vt 0.6096926 -0.2736766
vt -0.9867959 0.09471798
vt -0.5399795 -0.1296816
vt 0.9867959 0.09471798
vt 0.5399795 -0.1296816
vt -0.9062085 0.2495253
vt -0.4661078 0.01222491
vt 0.9062085 0.2495253
vt 0.4661078 0.01222491
vt -0.8211522 0.4019229
vt -0.3881397 0.1519229
vt 0.8211522 0.4019229
vt 0.3881397 0.1519229
vt -0.7316999 0.5517824
vt -0.3061419 0.289294
vt 0.7316999 0.5517824
vt 0.3061419 0.289294
vt -0.6379271 0.6989765
vt -0.2201834 0.424222
vt 0.6379271 0.6989765
vt 0.2201834 0.424222
vt -0.5399122 0.8433816
vt -0.1303363 0.5565934
vt 0.5399122 0.8433816
vt 0.1303363 0.5565934
vt -0.4377394 0.9848745
vt -0.03667736 0.6862953
vt 0.4377394 0.9848745
vt 0.03667736 0.6862953
vt -0.3314943 1.123336
vt 0.06071377 0.8132179
vt 0.3314943 1.123336
vt -0.06071377 0.8132179
vt -0.2212667 1.258648
vt 0.1617556 0.9372547
vt 0.2212667 1.258648
vt -0.1617556 0.9372547
vt -0.1071506 1.390698
vt 0.2663622 1.0583
vt 0.1071506 1.390698
vt -0.2663622 1.0583
vt 0.01075792 1.519373
vt 0.374445 1.176252
vt -0.01075792 1.519373
vt -0.374445 1.176252
vt 0.1323595 1.644563
vt 0.4859128 1.29101
vt -0.1323595 1.644563
vt -0.4859128 1.29101
vt 0.2575502 1.766165
vt 0.6006711 1.402478
vt -0.2575502 1.766165
vt -0.6006711 1.402478
vt 0.3862247 1.884073
vt 0.7186227 1.510561
vt -0.3862247 1.884073
vt -0.7186227 1.510561
vt 0.5182743 1.99819
vt 0.839668 1.615167
vt -0.5182743 1.99819
vt -0.839668 1.615167
vt 0.6535873 2.108417
vt 0.9637051 1.716209
vt -0.6535873 2.108417
vt -0.9637051 1.716209
vt 0.7920485 2.214662
vt 1.090628 1.8136
vt -0.7920485 2.214662
vt -1.090628 1.8136
vt 0.9335413 2.316835
vt 1.22033 1.907259
vt -0.9335413 2.316835
vt -1.22033 1.907259
vt 1.077946 2.41485
vt 1.3527 1.997106
vt -1.077946 2.41485
vt -1.3527 1.997106
vt 1.22514 2.508623
vt 1.487629 2.083065
vt -1.22514 2.508623
vt -1.487629 2.083065
vt 1.375 2.598076
vt 1.625 2.165063
vt -1.375 2.598076
vt -1.625 2.165063

vn -0.9998942 -1.734028E-09 0.01454608
vn 0.9998942 1.733909E-09 -0.01454509
vn 0 1.192093E-07 -1
vn -0.9990484 -5.199477E-09 0.04361638
vn 0.9990483 5.199599E-09 -0.0436174
vn -0.9973568 -8.661679E-09 0.07265944
vn 0.997357 8.661381E-09 -0.07265694
vn -0.9948216 -1.211605E-08 0.1016368
vn 0.9948215 1.211605E-08 -0.1016368
vn -0.9914451 -1.555968E-08 0.1305241
vn 0.9914447 1.556005E-08 -0.1305272
vn -0.987229 -1.899093E-08 0.1593075
vn 0.987229 1.899093E-08 -0.1593075
vn -0.9821783 -2.240559E-08 0.1879517
vn 0.9821784 2.240548E-08 -0.1879508
vn -0.9762959 -2.580165E-08 0.21644
vn 0.9762956 2.580185E-08 -0.2164416
vn -0.9695882 -2.917557E-08 0.2447425
vn 0.9695882 2.917552E-08 -0.244742
vn -0.9620593 -3.252511E-08 0.2728404
vn 0.9620596 3.252503E-08 -0.2728398
vn -0.9537171 -3.584687E-08 0.3007054
vn 0.9537173 3.58468E-08 -0.3007048
vn -0.9445675 -3.913847E-08 0.3283173
vn 0.9445667 3.913876E-08 -0.3283197
vn -0.9346184 -4.239704E-08 0.3556522
vn 0.9346188 4.239693E-08 -0.3556513
vn -0.9238794 -4.561945E-08 0.3826837
vn 0.9238802 4.561925E-08 -0.3826821
vn -0.9123588 -4.880328E-08 0.4093917
vn 0.912358 4.880349E-08 -0.4093934
vn -0.9000656 -5.194598E-08 0.4357545
vn 0.9000659 5.194591E-08 -0.4357539
vn -0.8870113 -5.504462E-08 0.4617478
vn 0.8870115 5.504459E-08 -0.4617475
vn -0.8732046 -5.80971E-08 0.4873538
vn 0.8732054 5.809694E-08 -0.4873526
vn -0.8586621 -6.109978E-08 0.5125422
vn 0.8586621 6.109979E-08 -0.5125422
vn -0.8433918 -6.405104E-08 0.5372992
vn 0.8433918 6.405104E-08 -0.5372991
vn -0.8274075 -6.694818E-08 0.5616021
vn 0.8274072 6.694824E-08 -0.5616026
vn -0.8107239 -6.978854E-08 0.5854288
vn 0.8107226 6.978875E-08 -0.5854305
vn -0.7933531 -7.257006E-08 0.6087618
vn 0.7933534 7.257001E-08 -0.6087614
vn -0.7753115 -7.529008E-08 0.631579
vn 0.7753122 7.528999E-08 -0.6315783
vn -0.7566155 -7.794619E-08 0.6538601
vn 0.756615 7.794626E-08 -0.6538607
vn -0.7372773 -8.053664E-08 0.6755903
vn 0.7372773 8.053664E-08 -0.6755903
vn -0.7173145 -8.305901E-08 0.6967496
vn 0.7173157 8.305888E-08 -0.6967484
vn -0.6967495 -8.551056E-08 0.7173146
vn 0.6967484 8.551069E-08 -0.7173157
vn -0.6755903 -8.789031E-08 0.7372774
vn 0.6755903 8.78903E-08 -0.7372773
vn -0.6538607 -9.019553E-08 0.756615
vn 0.6538614 9.019546E-08 -0.7566145
vn -0.6315767 -9.242456E-08 0.7753136
vn 0.6315775 9.242449E-08 -0.7753129
vn -0.6087635 -9.45749E-08 0.7933519
vn 0.6087614 9.457509E-08 -0.7933535
vn -0.5854287 -9.664582E-08 0.810724
vn 0.5854304 9.664567E-08 -0.8107228
vn -0.5616027 -9.863462E-08 0.8274072
vn 0.5616039 9.863451E-08 -0.8274063
vn -0.5372991 -1.005401E-07 0.8433919
vn 0.5372984 1.005402E-07 -0.8433924
vn -0.512543 -1.023604E-07 0.8586617
vn 0.5125408 1.023606E-07 -0.858663
vn 0.8660255 -5.960462E-08 0.4999998
vn 0 -1 -1.192093E-07
vn 0 1 1.192093E-07

usemtl ProBuilderDefault
f 3/3/1 4/4/1 2/2/1 1/1/1
f 7/7/2 8/8/2 6/6/2 5/5/2
f 1/11/3 6/12/3 8/10/3 3/9/3
f 4/15/4 10/16/4 9/14/4 2/13/4
f 12/19/5 7/20/5 5/18/5 11/17/5
f 10/23/6 14/24/6 13/22/6 9/21/6
f 16/27/7 12/28/7 11/26/7 15/25/7
f 14/31/8 18/32/8 17/30/8 13/29/8
f 20/35/9 16/36/9 15/34/9 19/33/9
f 18/39/10 22/40/10 21/38/10 17/37/10
f 24/43/11 20/44/11 19/42/11 23/41/11
f 22/47/12 26/48/12 25/46/12 21/45/12
f 28/51/13 24/52/13 23/50/13 27/49/13
f 26/55/14 30/56/14 29/54/14 25/53/14
f 32/59/15 28/60/15 27/58/15 31/57/15
f 30/63/16 34/64/16 33/62/16 29/61/16
f 36/67/17 32/68/17 31/66/17 35/65/17
f 34/71/18 38/72/18 37/70/18 33/69/18
f 40/75/19 36/76/19 35/74/19 39/73/19
f 38/79/20 42/80/20 41/78/20 37/77/20
f 44/83/21 40/84/21 39/82/21 43/81/21
f 42/87/22 46/88/22 45/86/22 41/85/22
f 48/91/23 44/92/23 43/90/23 47/89/23
f 46/95/24 50/96/24 49/94/24 45/93/24
f 52/99/25 48/100/25 47/98/25 51/97/25
f 50/103/26 54/104/26 53/102/26 49/101/26
f 56/107/27 52/108/27 51/106/27 55/105/27
f 54/111/28 58/112/28 57/110/28 53/109/28
f 60/115/29 56/116/29 55/114/29 59/113/29
f 58/119/30 62/120/30 61/118/30 57/117/30
f 64/123/31 60/124/31 59/122/31 63/121/31
f 62/127/32 66/128/32 65/126/32 61/125/32
f 68/131/33 64/132/33 63/130/33 67/129/33
f 66/135/34 70/136/34 69/134/34 65/133/34
f 72/139/35 68/140/35 67/138/35 71/137/35
f 70/143/36 74/144/36 73/142/36 69/141/36
f 76/147/37 72/148/37 71/146/37 75/145/37
f 74/151/38 78/152/38 77/150/38 73/149/38
f 80/155/39 76/156/39 75/154/39 79/153/39
f 78/159/40 82/160/40 81/158/40 77/157/40
f 84/163/41 80/164/41 79/162/41 83/161/41
f 82/167/42 86/168/42 85/166/42 81/165/42
f 88/171/43 84/172/43 83/170/43 87/169/43
f 86/175/44 90/176/44 89/174/44 85/173/44
f 92/179/45 88/180/45 87/178/45 91/177/45
f 90/183/46 94/184/46 93/182/46 89/181/46
f 96/187/47 92/188/47 91/186/47 95/185/47
f 94/191/48 98/192/48 97/190/48 93/189/48
f 100/195/49 96/196/49 95/194/49 99/193/49
f 98/199/50 102/200/50 101/198/50 97/197/50
f 104/203/51 100/204/51 99/202/51 103/201/51
f 102/207/52 106/208/52 105/206/52 101/205/52
f 108/211/53 104/212/53 103/210/53 107/209/53
f 106/215/54 110/216/54 109/214/54 105/213/54
f 112/219/55 108/220/55 107/218/55 111/217/55
f 110/223/56 114/224/56 113/222/56 109/221/56
f 116/227/57 112/228/57 111/226/57 115/225/57
f 114/231/58 118/232/58 117/230/58 113/229/58
f 120/235/59 116/236/59 115/234/59 119/233/59
f 118/239/60 122/240/60 121/238/60 117/237/60
f 124/243/61 120/244/61 119/242/61 123/241/61
f 122/247/62 126/248/62 125/246/62 121/245/62
f 128/251/63 124/252/63 123/250/63 127/249/63
f 126/255/64 130/256/64 129/254/64 125/253/64
f 132/259/65 128/260/65 127/258/65 131/257/65
f 130/263/66 134/264/66 133/262/66 129/261/66
f 136/267/67 132/268/67 131/266/67 135/265/67
f 134/271/68 138/272/68 137/270/68 133/269/68
f 140/275/69 136/276/69 135/274/69 139/273/69
f 138/279/70 142/280/70 141/278/70 137/277/70
f 144/283/71 140/284/71 139/282/71 143/281/71
f 142/287/72 146/288/72 145/286/72 141/285/72
f 148/291/73 144/292/73 143/290/73 147/289/73
f 147/295/74 145/296/74 146/294/74 148/293/74
f 8/299/75 7/300/75 4/298/75 3/297/75
f 5/303/76 6/304/76 1/302/76 2/301/76
f 7/300/75 12/306/75 10/305/75 4/298/75
f 11/308/76 5/303/76 2/301/76 9/307/76
f 12/306/75 16/310/75 14/309/75 10/305/75
f 15/312/76 11/308/76 9/307/76 13/311/76
f 16/310/75 20/314/75 18/313/75 14/309/75
f 19/316/76 15/312/76 13/311/76 17/315/76
f 20/314/75 24/318/75 22/317/75 18/313/75
f 23/320/76 19/316/76 17/315/76 21/319/76
f 24/318/75 28/322/75 26/321/75 22/317/75
f 27/324/76 23/320/76 21/319/76 25/323/76
f 28/322/75 32/326/75 30/325/75 26/321/75
f 31/328/76 27/324/76 25/323/76 29/327/76
f 32/326/75 36/330/75 34/329/75 30/325/75
f 35/332/76 31/328/76 29/327/76 33/331/76
f 36/330/75 40/334/75 38/333/75 34/329/75
f 39/336/76 35/332/76 33/331/76 37/335/76
f 40/334/75 44/338/75 42/337/75 38/333/75
f 43/340/76 39/336/76 37/335/76 41/339/76
f 44/338/75 48/342/75 46/341/75 42/337/75
f 47/344/76 43/340/76 41/339/76 45/343/76
f 48/342/75 52/346/75 50/345/75 46/341/75
f 51/348/76 47/344/76 45/343/76 49/347/76
f 52/346/75 56/350/75 54/349/75 50/345/75
f 55/352/76 51/348/76 49/347/76 53/351/76
f 56/350/75 60/354/75 58/353/75 54/349/75
f 59/356/76 55/352/76 53/351/76 57/355/76
f 60/354/75 64/358/75 62/357/75 58/353/75
f 63/360/76 59/356/76 57/355/76 61/359/76
f 64/358/75 68/362/75 66/361/75 62/357/75
f 67/364/76 63/360/76 61/359/76 65/363/76
f 68/362/75 72/366/75 70/365/75 66/361/75
f 71/368/76 67/364/76 65/363/76 69/367/76
f 72/366/75 76/370/75 74/369/75 70/365/75
f 75/372/76 71/368/76 69/367/76 73/371/76
f 76/370/75 80/374/75 78/373/75 74/369/75
f 79/376/76 75/372/76 73/371/76 77/375/76
f 80/374/75 84/378/75 82/377/75 78/373/75
f 83/380/76 79/376/76 77/375/76 81/379/76
f 84/378/75 88/382/75 86/381/75 82/377/75
f 87/384/76 83/380/76 81/379/76 85/383/76
f 88/382/75 92/386/75 90/385/75 86/381/75
f 91/388/76 87/384/76 85/383/76 89/387/76
f 92/386/75 96/390/75 94/389/75 90/385/75
f 95/392/76 91/388/76 89/387/76 93/391/76
f 96/390/75 100/394/75 98/393/75 94/389/75
f 99/396/76 95/392/76 93/391/76 97/395/76
f 100/394/75 104/398/75 102/397/75 98/393/75
f 103/400/76 99/396/76 97/395/76 101/399/76
f 104/398/75 108/402/75 106/401/75 102/397/75
f 107/404/76 103/400/76 101/399/76 105/403/76
f 108/402/75 112/406/75 110/405/75 106/401/75
f 111/408/76 107/404/76 105/403/76 109/407/76
f 112/406/75 116/410/75 114/409/75 110/405/75
f 115/412/76 111/408/76 109/407/76 113/411/76
f 116/410/75 120/414/75 118/413/75 114/409/75
f 119/416/76 115/412/76 113/411/76 117/415/76
f 120/414/75 124/418/75 122/417/75 118/413/75
f 123/420/76 119/416/76 117/415/76 121/419/76
f 124/418/75 128/422/75 126/421/75 122/417/75
f 127/424/76 123/420/76 121/419/76 125/423/76
f 128/422/75 132/426/75 130/425/75 126/421/75
f 131/428/76 127/424/76 125/423/76 129/427/76
f 132/426/75 136/430/75 134/429/75 130/425/75
f 135/432/76 131/428/76 129/427/76 133/431/76
f 136/430/75 140/434/75 138/433/75 134/429/75
f 139/436/76 135/432/76 133/431/76 137/435/76
f 140/434/75 144/438/75 142/437/75 138/433/75
f 143/440/76 139/436/76 137/435/76 141/439/76
f 144/438/75 148/442/75 146/441/75 142/437/75
f 147/444/76 143/440/76 141/439/76 145/443/76

