# ProBuilder 4.4.0
# https://unity3d.com/unity/features/worldbuilding/probuilder
# 05.10.2021 23:39:44

mtllib ./Platform.mtl
o Platform

g Cylinder
v 0 0 0
v 0 0.1 0
v 0.002985477 0 0.06077063
v 0.002985477 0.1 0.06077063
v 0.01191312 0 0.120956
v 0.01191312 0.1 0.120956
v 0.02669698 0 0.1799765
v 0.02669698 0.1 0.1799765
v 0.04719472 0 0.2372637
v 0.04719472 0.1 0.2372637
v 0.07320881 0 0.292266
v 0.07320881 0.1 0.292266
v 0.1044888 0 0.3444535
v 0.1044888 0.1 0.3444535
v 0.1407335 0 0.3933238
v 0.1407335 0.1 0.3933238
v 0.1815938 0 0.4384062
v 0.1815938 0.1 0.4384062
v 0.2266762 0 0.4792665
v 0.2266762 0.1 0.4792665
v 0.2755465 0 0.5155112
v 0.2755465 0.1 0.5155112
v 0.327734 0 0.5467912
v 0.327734 0.1 0.5467912
v 0.3827363 0 0.5728053
v 0.3827363 0.1 0.5728053
v 0.4400235 0 0.593303
v 0.4400235 0.1 0.593303
v 0.499044 0 0.6080869
v 0.499044 0.1 0.6080869
v 0.5592294 0 0.6170145
v 0.5592294 0.1 0.6170145
v 0.62 0 0.62
v 0.62 0.1 0.62
v 0.6807706 0 0.6170145
v 0.6807706 0.1 0.6170145
v 0.740956 0 0.6080869
v 0.740956 0.1 0.6080869
v 0.7999765 0 0.593303
v 0.7999765 0.1 0.593303
v 0.8572637 0 0.5728053
v 0.8572637 0.1 0.5728053
v 0.9122659 0 0.5467912
v 0.9122659 0.1 0.5467912
v 0.9644535 0 0.5155112
v 0.9644535 0.1 0.5155112
v 1.013324 0 0.4792665
v 1.013324 0.1 0.4792665
v 1.058406 0 0.4384062
v 1.058406 0.1 0.4384062
v 1.099267 0 0.3933238
v 1.099267 0.1 0.3933238
v 1.135511 0 0.3444535
v 1.135511 0.1 0.3444535
v 1.166791 0 0.292266
v 1.166791 0.1 0.292266
v 1.192805 0 0.2372638
v 1.192805 0.1 0.2372638
v 1.213303 0 0.1799765
v 1.213303 0.1 0.1799765
v 1.228087 0 0.120956
v 1.228087 0.1 0.120956
v 1.237015 0 0.0607706
v 1.237015 0.1 0.0607706
v 1.24 0 -5.420212E-08
v 1.24 0.1 -5.420212E-08
v 1.237015 0 -0.06077056
v 1.237015 0.1 -0.06077056
v 1.228087 0 -0.120956
v 1.228087 0.1 -0.120956
v 1.213303 0 -0.1799765
v 1.213303 0.1 -0.1799765
v 1.192805 0 -0.2372637
v 1.192805 0.1 -0.2372637
v 1.166791 0 -0.292266
v 1.166791 0.1 -0.292266
v 1.135511 0 -0.3444536
v 1.135511 0.1 -0.3444536
v 1.099267 0 -0.3933238
v 1.099267 0.1 -0.3933238
v 1.058406 0 -0.4384062
v 1.058406 0.1 -0.4384062
v 1.013324 0 -0.4792665
v 1.013324 0.1 -0.4792665
v 0.9644537 0 -0.5155111
v 0.9644537 0.1 -0.5155111
v 0.912266 0 -0.5467912
v 0.912266 0.1 -0.5467912
v 0.8572638 0 -0.5728053
v 0.8572638 0.1 -0.5728053
v 0.7999764 0 -0.593303
v 0.7999764 0.1 -0.593303
v 0.7409561 0 -0.6080869
v 0.7409561 0.1 -0.6080869
v 0.6807708 0 -0.6170145
v 0.6807708 0.1 -0.6170145
v 0.62 0 -0.62
v 0.62 0.1 -0.62
v 0.5592295 0 -0.6170145
v 0.5592295 0.1 -0.6170145
v 0.4990439 0 -0.6080869
v 0.4990439 0.1 -0.6080869
v 0.4400236 0 -0.593303
v 0.4400236 0.1 -0.593303
v 0.3827361 0 -0.5728053
v 0.3827361 0.1 -0.5728053
v 0.3277341 0 -0.5467912
v 0.3277341 0.1 -0.5467912
v 0.2755466 0 -0.5155112
v 0.2755466 0.1 -0.5155112
v 0.2266761 0 -0.4792665
v 0.2266761 0.1 -0.4792665
v 0.1815939 0 -0.4384063
v 0.1815939 0.1 -0.4384063
v 0.1407335 0 -0.3933237
v 0.1407335 0.1 -0.3933237
v 0.1044888 0 -0.3444536
v 0.1044888 0.1 -0.3444536
v 0.07320893 0 -0.2922661
v 0.07320893 0.1 -0.2922661
v 0.04719466 0 -0.2372637
v 0.04719466 0.1 -0.2372637
v 0.02669704 0 -0.1799766
v 0.02669704 0.1 -0.1799766
v 0.01191312 0 -0.1209559
v 0.01191312 0.1 -0.1209559
v 0.002985477 0 -0.06077069
v 0.002985477 0.1 -0.06077069
v 0.62 0 0
v 0.62 0.1 0

vt 0 0
vt 0 0.1
vt 0.06084392 0
vt 0.06084392 0.1
vt 0.1213949 0
vt 0.1213949 0.1
vt 0.1202258 0
vt 0.1202258 0.1
vt 0.1810697 0
vt 0.1810697 0.1
vt 0.1784497 0
vt 0.1784497 0.1
vt 0.2392937 0
vt 0.2392937 0.1
vt 0.2346622 0
vt 0.2346622 0.1
vt 0.2955061 0
vt 0.2955061 0.1
vt 0.2883217 0
vt 0.2883217 0.1
vt 0.3491656 0
vt 0.3491656 0.1
vt 0.3389117 0
vt 0.3389117 0.1
vt 0.3997556 0
vt 0.3997556 0.1
vt 0.3859445 0
vt 0.3859445 0.1
vt 0.4467885 0
vt 0.4467885 0.1
vt 0.4289677 0
vt 0.4289677 0.1
vt 0.4898116 0
vt 0.4898116 0.1
vt 0.4675667 0
vt 0.4675667 0.1
vt 0.5284106 0
vt 0.5284106 0.1
vt 0.50137 0
vt 0.50137 0.1
vt 0.5622138 0
vt 0.5622138 0.1
vt 0.5300512 0
vt 0.5300512 0.1
vt 0.5908951 0
vt 0.5908951 0.1
vt 0.5533355 0
vt 0.5533355 0.1
vt 0.6141795 0
vt 0.6141795 0.1
vt 0.5709975 0
vt 0.5709975 0.1
vt 0.6318414 0
vt 0.6318414 0.1
vt 0.5828674 0
vt 0.5828674 0.1
vt 0.6437113 0
vt 0.6437113 0.1
vt 0.5888313 0
vt 0.5888313 0.1
vt 0.6496753 0
vt 0.6496753 0.1
vt -0.06084415 0
vt -0.06084415 0.1
vt -0.1213934 0
vt -0.1213934 0.1
vt -0.1810695 0
vt -0.1810695 0.1
vt -0.1202256 0
vt -0.1202256 0.1
vt -0.2392955 0
vt -0.2392955 0.1
vt -0.1784515 0
vt -0.1784515 0.1
vt -0.2955052 0
vt -0.2955052 0.1
vt -0.2346612 0
vt -0.2346612 0.1
vt -0.3491656 0
vt -0.3491656 0.1
vt -0.2883217 0
vt -0.2883217 0.1
vt -0.3997557 0
vt -0.3997557 0.1
vt -0.3389119 0
vt -0.3389119 0.1
vt -0.4467889 0
vt -0.4467889 0.1
vt -0.385945 0
vt -0.385945 0.1
vt -0.489811 0
vt -0.489811 0.1
vt -0.4289671 0
vt -0.4289671 0.1
vt -0.5284105 0
vt -0.5284105 0.1
vt -0.4675666 0
vt -0.4675666 0.1
vt -0.5622143 0
vt -0.5622143 0.1
vt -0.5013701 0
vt -0.5013701 0.1
vt -0.5908952 0
vt -0.5908952 0.1
vt -0.5300514 0
vt -0.5300514 0.1
vt -0.6141796 0
vt -0.6141796 0.1
vt -0.5533355 0
vt -0.5533355 0.1
vt -0.6318408 0
vt -0.6318408 0.1
vt -0.5709971 0
vt -0.5709971 0.1
vt -0.6437114 0
vt -0.6437114 0.1
vt -0.5828676 0
vt -0.5828676 0.1
vt -0.6496753 0
vt -0.6496753 0.1
vt -0.5888312 0
vt -0.5888312 0.1
vt 0.62 0
vt 0.002985477 0.06077063
vt -0.62 0
vt -0.002985477 0.06077063
vt 0.01191312 0.120956
vt -0.01191312 0.120956
vt 0.02669698 0.1799765
vt -0.02669698 0.1799765
vt 0.04719472 0.2372637
vt -0.04719472 0.2372637
vt 0.07320881 0.292266
vt -0.07320881 0.292266
vt 0.1044888 0.3444535
vt -0.1044888 0.3444535
vt 0.1407335 0.3933238
vt -0.1407335 0.3933238
vt 0.1815938 0.4384062
vt -0.1815938 0.4384062
vt 0.2266762 0.4792665
vt -0.2266762 0.4792665
vt 0.2755465 0.5155112
vt -0.2755465 0.5155112
vt 0.327734 0.5467912
vt -0.327734 0.5467912
vt 0.3827363 0.5728053
vt -0.3827363 0.5728053
vt 0.4400235 0.593303
vt -0.4400235 0.593303
vt 0.499044 0.6080869
vt -0.499044 0.6080869
vt 0.5592294 0.6170145
vt -0.5592294 0.6170145
vt 0.62 0.62
vt -0.62 0.62
vt 0.6807706 0.6170145
vt -0.6807706 0.6170145
vt 0.740956 0.6080869
vt -0.740956 0.6080869
vt 0.7999765 0.593303
vt -0.7999765 0.593303
vt 0.8572637 0.5728053
vt -0.8572637 0.5728053
vt 0.9122659 0.5467912
vt -0.9122659 0.5467912
vt 0.9644535 0.5155112
vt -0.9644535 0.5155112
vt 1.013324 0.4792665
vt -1.013324 0.4792665
vt 1.058406 0.4384062
vt -1.058406 0.4384062
vt 1.099267 0.3933238
vt -1.099267 0.3933238
vt 1.135511 0.3444535
vt -1.135511 0.3444535
vt 1.166791 0.292266
vt -1.166791 0.292266
vt 1.192805 0.2372638
vt -1.192805 0.2372638
vt 1.213303 0.1799765
vt -1.213303 0.1799765
vt 1.228087 0.120956
vt -1.228087 0.120956
vt 1.237015 0.0607706
vt -1.237015 0.0607706
vt 1.24 -5.420212E-08
vt -1.24 -5.420212E-08
vt 1.237015 -0.06077056
vt -1.237015 -0.06077056
vt 1.228087 -0.120956
vt -1.228087 -0.120956
vt 1.213303 -0.1799765
vt -1.213303 -0.1799765
vt 1.192805 -0.2372637
vt -1.192805 -0.2372637
vt 1.166791 -0.292266
vt -1.166791 -0.292266
vt 1.135511 -0.3444536
vt -1.135511 -0.3444536
vt 1.099267 -0.3933238
vt -1.099267 -0.3933238
vt 1.058406 -0.4384062
vt -1.058406 -0.4384062
vt 1.013324 -0.4792665
vt -1.013324 -0.4792665
vt 0.9644537 -0.5155111
vt -0.9644537 -0.5155111
vt 0.912266 -0.5467912
vt -0.912266 -0.5467912
vt 0.8572638 -0.5728053
vt -0.8572638 -0.5728053
vt 0.7999764 -0.593303
vt -0.7999764 -0.593303
vt 0.7409561 -0.6080869
vt -0.7409561 -0.6080869
vt 0.6807708 -0.6170145
vt -0.6807708 -0.6170145
vt 0.62 -0.62
vt -0.62 -0.62
vt 0.5592295 -0.6170145
vt -0.5592295 -0.6170145
vt 0.4990439 -0.6080869
vt -0.4990439 -0.6080869
vt 0.4400236 -0.593303
vt -0.4400236 -0.593303
vt 0.3827361 -0.5728053
vt -0.3827361 -0.5728053
vt 0.3277341 -0.5467912
vt -0.3277341 -0.5467912
vt 0.2755466 -0.5155112
vt -0.2755466 -0.5155112
vt 0.2266761 -0.4792665
vt -0.2266761 -0.4792665
vt 0.1815939 -0.4384063
vt -0.1815939 -0.4384063
vt 0.1407335 -0.3933237
vt -0.1407335 -0.3933237
vt 0.1044888 -0.3444536
vt -0.1044888 -0.3444536
vt 0.07320893 -0.2922661
vt -0.07320893 -0.2922661
vt 0.04719466 -0.2372637
vt -0.04719466 -0.2372637
vt 0.02669704 -0.1799766
vt -0.02669704 -0.1799766
vt 0.01191312 -0.1209559
vt -0.01191312 -0.1209559
vt 0.002985477 -0.06077069
vt -0.002985477 -0.06077069

vn -1 0 2.610848E-08
vn -0.9951847 0 0.0980171
vn -0.9807853 0 0.1950902
vn -0.9569403 0 0.2902849
vn -0.9238795 0 0.3826835
vn -0.8819214 0 0.4713966
vn -0.8314697 0 0.5555701
vn -0.7730104 0 0.6343933
vn -0.7071066 0 0.7071069
vn -0.6343933 0 0.7730104
vn -0.5555705 0 0.8314694
vn -0.4713967 0 0.8819213
vn -0.3826833 0 0.9238796
vn -0.2902849 0 0.9569403
vn -0.1950903 0 0.9807853
vn -0.0980171 0 0.9951847
vn 0 0 1
vn 0.0980171 0 0.9951847
vn 0.1950906 0 0.9807853
vn 0.2902847 0 0.9569404
vn 0.3826833 0 0.9238796
vn 0.4713965 0 0.8819214
vn 0.5555701 0 0.8314697
vn 0.6343933 0 0.7730104
vn 0.7071064 0 0.7071072
vn 0.7730107 0 0.634393
vn 0.8314696 0 0.5555702
vn 0.8819212 0 0.4713969
vn 0.9238794 0 0.3826838
vn 0.9569402 0 0.2902853
vn 0.9807854 0 0.1950896
vn 0.9951848 0 0.09801658
vn 1 0 -5.967653E-08
vn 0.9951848 0 -0.09801663
vn 0.9807854 0 -0.1950896
vn 0.9569402 0 -0.2902853
vn 0.9238794 0 -0.3826838
vn 0.8819215 0 -0.4713964
vn 0.8314695 0 -0.5555704
vn 0.7730103 0 -0.6343935
vn 0.7071069 0 -0.7071066
vn 0.6343936 0 -0.7730102
vn 0.5555702 0 -0.8314696
vn 0.4713967 0 -0.8819214
vn 0.3826833 0 -0.9238796
vn 0.2902848 0 -0.9569403
vn 0.1950906 0 -0.9807853
vn 0.09801716 0 -0.9951847
vn -1.193531E-07 0 -1
vn -0.09801694 0 -0.9951848
vn -0.1950902 0 -0.9807853
vn -0.2902847 0 -0.9569404
vn -0.3826835 0 -0.9238795
vn -0.471397 0 -0.8819212
vn -0.5555701 0 -0.8314697
vn -0.6343931 0 -0.7730106
vn -0.7071068 0 -0.7071067
vn -0.7730104 0 -0.6343933
vn -0.8314697 0 -0.5555701
vn -0.8819212 0 -0.4713969
vn -0.9238794 0 -0.3826836
vn -0.9569404 0 -0.2902845
vn -0.9807853 0 -0.1950905
vn -0.9951847 0 -0.09801722
vn 0 -1 0
vn 0 1 0

usemtl Default-Material
f 1/1/65 129/123/65 3/124/65
f 3/124/65 129/123/65 5/127/65
f 5/127/65 129/123/65 7/129/65
f 7/129/65 129/123/65 9/131/65
f 9/131/65 129/123/65 11/133/65
f 11/133/65 129/123/65 13/135/65
f 13/135/65 129/123/65 15/137/65
f 15/137/65 129/123/65 17/139/65
f 17/139/65 129/123/65 19/141/65
f 19/141/65 129/123/65 21/143/65
f 21/143/65 129/123/65 23/145/65
f 23/145/65 129/123/65 25/147/65
f 25/147/65 129/123/65 27/149/65
f 27/149/65 129/123/65 29/151/65
f 29/151/65 129/123/65 31/153/65
f 31/153/65 129/123/65 33/155/65
f 33/155/65 129/123/65 35/157/65
f 35/157/65 129/123/65 37/159/65
f 37/159/65 129/123/65 39/161/65
f 39/161/65 129/123/65 41/163/65
f 41/163/65 129/123/65 43/165/65
f 43/165/65 129/123/65 45/167/65
f 45/167/65 129/123/65 47/169/65
f 47/169/65 129/123/65 49/171/65
f 49/171/65 129/123/65 51/173/65
f 51/173/65 129/123/65 53/175/65
f 53/175/65 129/123/65 55/177/65
f 55/177/65 129/123/65 57/179/65
f 57/179/65 129/123/65 59/181/65
f 59/181/65 129/123/65 61/183/65
f 61/183/65 129/123/65 63/185/65
f 63/185/65 129/123/65 65/187/65
f 65/187/65 129/123/65 67/189/65
f 67/189/65 129/123/65 69/191/65
f 69/191/65 129/123/65 71/193/65
f 71/193/65 129/123/65 73/195/65
f 73/195/65 129/123/65 75/197/65
f 75/197/65 129/123/65 77/199/65
f 77/199/65 129/123/65 79/201/65
f 79/201/65 129/123/65 81/203/65
f 81/203/65 129/123/65 83/205/65
f 83/205/65 129/123/65 85/207/65
f 85/207/65 129/123/65 87/209/65
f 87/209/65 129/123/65 89/211/65
f 89/211/65 129/123/65 91/213/65
f 91/213/65 129/123/65 93/215/65
f 93/215/65 129/123/65 95/217/65
f 95/217/65 129/123/65 97/219/65
f 97/219/65 129/123/65 99/221/65
f 99/221/65 129/123/65 101/223/65
f 101/223/65 129/123/65 103/225/65
f 103/225/65 129/123/65 105/227/65
f 105/227/65 129/123/65 107/229/65
f 107/229/65 129/123/65 109/231/65
f 109/231/65 129/123/65 111/233/65
f 111/233/65 129/123/65 113/235/65
f 113/235/65 129/123/65 115/237/65
f 115/237/65 129/123/65 117/239/65
f 117/239/65 129/123/65 119/241/65
f 119/241/65 129/123/65 121/243/65
f 121/243/65 129/123/65 123/245/65
f 123/245/65 129/123/65 125/247/65
f 125/247/65 129/123/65 127/249/65
f 127/249/65 129/123/65 1/1/65
f 4/126/66 130/125/66 2/1/66
f 6/128/66 130/125/66 4/126/66
f 8/130/66 130/125/66 6/128/66
f 10/132/66 130/125/66 8/130/66
f 12/134/66 130/125/66 10/132/66
f 14/136/66 130/125/66 12/134/66
f 16/138/66 130/125/66 14/136/66
f 18/140/66 130/125/66 16/138/66
f 20/142/66 130/125/66 18/140/66
f 22/144/66 130/125/66 20/142/66
f 24/146/66 130/125/66 22/144/66
f 26/148/66 130/125/66 24/146/66
f 28/150/66 130/125/66 26/148/66
f 30/152/66 130/125/66 28/150/66
f 32/154/66 130/125/66 30/152/66
f 34/156/66 130/125/66 32/154/66
f 36/158/66 130/125/66 34/156/66
f 38/160/66 130/125/66 36/158/66
f 40/162/66 130/125/66 38/160/66
f 42/164/66 130/125/66 40/162/66
f 44/166/66 130/125/66 42/164/66
f 46/168/66 130/125/66 44/166/66
f 48/170/66 130/125/66 46/168/66
f 50/172/66 130/125/66 48/170/66
f 52/174/66 130/125/66 50/172/66
f 54/176/66 130/125/66 52/174/66
f 56/178/66 130/125/66 54/176/66
f 58/180/66 130/125/66 56/178/66
f 60/182/66 130/125/66 58/180/66
f 62/184/66 130/125/66 60/182/66
f 64/186/66 130/125/66 62/184/66
f 66/188/66 130/125/66 64/186/66
f 68/190/66 130/125/66 66/188/66
f 70/192/66 130/125/66 68/190/66
f 72/194/66 130/125/66 70/192/66
f 74/196/66 130/125/66 72/194/66
f 76/198/66 130/125/66 74/196/66
f 78/200/66 130/125/66 76/198/66
f 80/202/66 130/125/66 78/200/66
f 82/204/66 130/125/66 80/202/66
f 84/206/66 130/125/66 82/204/66
f 86/208/66 130/125/66 84/206/66
f 88/210/66 130/125/66 86/208/66
f 90/212/66 130/125/66 88/210/66
f 92/214/66 130/125/66 90/212/66
f 94/216/66 130/125/66 92/214/66
f 96/218/66 130/125/66 94/216/66
f 98/220/66 130/125/66 96/218/66
f 100/222/66 130/125/66 98/220/66
f 102/224/66 130/125/66 100/222/66
f 104/226/66 130/125/66 102/224/66
f 106/228/66 130/125/66 104/226/66
f 108/230/66 130/125/66 106/228/66
f 110/232/66 130/125/66 108/230/66
f 112/234/66 130/125/66 110/232/66
f 114/236/66 130/125/66 112/234/66
f 116/238/66 130/125/66 114/236/66
f 118/240/66 130/125/66 116/238/66
f 120/242/66 130/125/66 118/240/66
f 122/244/66 130/125/66 120/242/66
f 124/246/66 130/125/66 122/244/66
f 126/248/66 130/125/66 124/246/66
f 128/250/66 130/125/66 126/248/66
f 2/1/66 130/125/66 128/250/66
f 4/4/2 2/2/1 1/1/1
f 1/1/1 3/3/2 4/4/2
f 6/6/3 4/4/2 3/3/2
f 3/3/2 5/5/3 6/6/3
f 8/10/4 6/8/3 5/7/3
f 5/7/3 7/9/4 8/10/4
f 10/14/5 8/12/4 7/11/4
f 7/11/4 9/13/5 10/14/5
f 12/18/6 10/16/5 9/15/5
f 9/15/5 11/17/6 12/18/6
f 14/22/7 12/20/6 11/19/6
f 11/19/6 13/21/7 14/22/7
f 16/26/8 14/24/7 13/23/7
f 13/23/7 15/25/8 16/26/8
f 18/30/9 16/28/8 15/27/8
f 15/27/8 17/29/9 18/30/9
f 20/34/10 18/32/9 17/31/9
f 17/31/9 19/33/10 20/34/10
f 22/38/11 20/36/10 19/35/10
f 19/35/10 21/37/11 22/38/11
f 24/42/12 22/40/11 21/39/11
f 21/39/11 23/41/12 24/42/12
f 26/46/13 24/44/12 23/43/12
f 23/43/12 25/45/13 26/46/13
f 28/50/14 26/48/13 25/47/13
f 25/47/13 27/49/14 28/50/14
f 30/54/15 28/52/14 27/51/14
f 27/51/14 29/53/15 30/54/15
f 32/58/16 30/56/15 29/55/15
f 29/55/15 31/57/16 32/58/16
f 34/62/17 32/60/16 31/59/16
f 31/59/16 33/61/17 34/62/17
f 36/62/18 34/60/17 33/59/17
f 33/59/17 35/61/18 36/62/18
f 38/58/19 36/56/18 35/55/18
f 35/55/18 37/57/19 38/58/19
f 40/54/20 38/52/19 37/51/19
f 37/51/19 39/53/20 40/54/20
f 42/50/21 40/48/20 39/47/20
f 39/47/20 41/49/21 42/50/21
f 44/46/22 42/44/21 41/43/21
f 41/43/21 43/45/22 44/46/22
f 46/42/23 44/40/22 43/39/22
f 43/39/22 45/41/23 46/42/23
f 48/38/24 46/36/23 45/35/23
f 45/35/23 47/37/24 48/38/24
f 50/34/25 48/32/24 47/31/24
f 47/31/24 49/33/25 50/34/25
f 52/30/26 50/28/25 49/27/25
f 49/27/25 51/29/26 52/30/26
f 54/26/27 52/24/26 51/23/26
f 51/23/26 53/25/27 54/26/27
f 56/22/28 54/20/27 53/19/27
f 53/19/27 55/21/28 56/22/28
f 58/18/29 56/16/28 55/15/28
f 55/15/28 57/17/29 58/18/29
f 60/14/30 58/12/29 57/11/29
f 57/11/29 59/13/30 60/14/30
f 62/10/31 60/8/30 59/7/30
f 59/7/30 61/9/31 62/10/31
f 64/6/32 62/4/31 61/3/31
f 61/3/31 63/5/32 64/6/32
f 66/4/33 64/2/32 63/1/32
f 63/1/32 65/3/33 66/4/33
f 68/2/34 66/64/33 65/63/33
f 65/63/33 67/1/34 68/2/34
f 70/64/35 68/66/34 67/65/34
f 67/65/34 69/63/35 70/64/35
f 72/70/36 70/68/35 69/67/35
f 69/67/35 71/69/36 72/70/36
f 74/74/37 72/72/36 71/71/36
f 71/71/36 73/73/37 74/74/37
f 76/78/38 74/76/37 73/75/37
f 73/75/37 75/77/38 76/78/38
f 78/82/39 76/80/38 75/79/38
f 75/79/38 77/81/39 78/82/39
f 80/86/40 78/84/39 77/83/39
f 77/83/39 79/85/40 80/86/40
f 82/90/41 80/88/40 79/87/40
f 79/87/40 81/89/41 82/90/41
f 84/94/42 82/92/41 81/91/41
f 81/91/41 83/93/42 84/94/42
f 86/98/43 84/96/42 83/95/42
f 83/95/42 85/97/43 86/98/43
f 88/102/44 86/100/43 85/99/43
f 85/99/43 87/101/44 88/102/44
f 90/106/45 88/104/44 87/103/44
f 87/103/44 89/105/45 90/106/45
f 92/110/46 90/108/45 89/107/45
f 89/107/45 91/109/46 92/110/46
f 94/114/47 92/112/46 91/111/46
f 91/111/46 93/113/47 94/114/47
f 96/118/48 94/116/47 93/115/47
f 93/115/47 95/117/48 96/118/48
f 98/122/49 96/120/48 95/119/48
f 95/119/48 97/121/49 98/122/49
f 100/122/50 98/120/49 97/119/49
f 97/119/49 99/121/50 100/122/50
f 102/118/51 100/116/50 99/115/50
f 99/115/50 101/117/51 102/118/51
f 104/114/52 102/112/51 101/111/51
f 101/111/51 103/113/52 104/114/52
f 106/110/53 104/108/52 103/107/52
f 103/107/52 105/109/53 106/110/53
f 108/106/54 106/104/53 105/103/53
f 105/103/53 107/105/54 108/106/54
f 110/102/55 108/100/54 107/99/54
f 107/99/54 109/101/55 110/102/55
f 112/98/56 110/96/55 109/95/55
f 109/95/55 111/97/56 112/98/56
f 114/94/57 112/92/56 111/91/56
f 111/91/56 113/93/57 114/94/57
f 116/90/58 114/88/57 113/87/57
f 113/87/57 115/89/58 116/90/58
f 118/86/59 116/84/58 115/83/58
f 115/83/58 117/85/59 118/86/59
f 120/82/60 118/80/59 117/79/59
f 117/79/59 119/81/60 120/82/60
f 122/78/61 120/76/60 119/75/60
f 119/75/60 121/77/61 122/78/61
f 124/74/62 122/72/61 121/71/61
f 121/71/61 123/73/62 124/74/62
f 126/70/63 124/68/62 123/67/62
f 123/67/62 125/69/63 126/70/63
f 128/64/64 126/66/63 125/65/63
f 125/65/63 127/63/64 128/64/64
f 2/2/1 128/64/64 127/63/64
f 127/63/64 1/1/1 2/2/1

